<?xml version="1.0" standalone="no"?>
<!DOCTYPE svg PUBLIC "-//W3C//DTD SVG 20010904//EN"
 "http://www.w3.org/TR/2001/REC-SVG-20010904/DTD/svg10.dtd">
<svg version="1.0" xmlns="http://www.w3.org/2000/svg"
 width="2400.000000pt" height="3200.000000pt" viewBox="0 0 2400.000000 3200.000000"
 preserveAspectRatio="xMidYMid meet">

<g transform="translate(0.000000,3200.000000) scale(0.100000,-0.100000)"
fill="#000000" stroke="none">
<path d="M13784 23155 c-14 -11 -53 -15 -164 -15 -111 0 -150 -4 -164 -15 -14
-10 -45 -15 -96 -15 -51 0 -82 -5 -96 -15 -11 -8 -42 -14 -76 -15 -37 0 -62
-5 -72 -15 -9 -9 -33 -15 -64 -15 -32 0 -54 -5 -62 -15 -7 -9 -29 -15 -54 -15
-23 0 -51 -7 -62 -15 -10 -8 -33 -15 -50 -15 -17 0 -37 -7 -44 -15 -7 -8 -27
-15 -44 -15 -17 0 -48 -9 -69 -20 -20 -11 -43 -20 -51 -20 -7 0 -19 -7 -26
-15 -7 -8 -27 -15 -45 -15 -18 0 -38 -7 -45 -15 -7 -8 -23 -15 -35 -15 -12 0
-47 -13 -78 -30 -31 -16 -63 -30 -71 -30 -7 0 -19 -7 -26 -15 -7 -8 -23 -15
-35 -15 -13 0 -25 -7 -29 -15 -3 -8 -16 -15 -30 -15 -13 0 -26 -7 -30 -15 -3
-8 -16 -15 -30 -15 -13 0 -26 -7 -30 -15 -3 -8 -14 -15 -24 -15 -11 0 -25 -7
-32 -15 -7 -8 -20 -15 -30 -15 -10 0 -23 -6 -29 -14 -7 -8 -31 -24 -54 -36
-23 -12 -46 -28 -50 -36 -4 -8 -16 -14 -25 -14 -10 0 -23 -5 -29 -11 -6 -6
-20 -16 -32 -23 -41 -23 -137 -90 -159 -111 -12 -12 -41 -35 -65 -51 -23 -16
-54 -40 -68 -54 -14 -14 -75 -69 -135 -122 -106 -95 -244 -238 -244 -255 -1
-4 -21 -28 -45 -53 -25 -25 -48 -53 -51 -62 -3 -10 -10 -18 -15 -18 -5 0 -9
-4 -9 -9 0 -8 -44 -72 -108 -156 -20 -27 -70 -113 -76 -132 -4 -12 -13 -27
-21 -33 -8 -7 -15 -21 -15 -31 0 -11 -4 -19 -10 -19 -5 0 -13 -12 -16 -27 -13
-56 -29 -63 -129 -63 -70 0 -96 4 -105 15 -11 13 -59 15 -320 15 -261 0 -309
-2 -320 -15 -10 -12 -40 -15 -150 -15 -110 0 -140 -3 -150 -15 -9 -11 -33 -15
-90 -15 -57 0 -81 -4 -90 -15 -9 -10 -32 -15 -75 -15 -43 0 -66 -5 -75 -15 -7
-9 -29 -15 -55 -15 -26 0 -48 -6 -55 -15 -7 -8 -29 -15 -50 -15 -21 0 -43 -7
-50 -15 -7 -8 -27 -15 -45 -15 -18 0 -38 -7 -45 -15 -7 -8 -22 -15 -34 -15
-12 0 -30 -6 -41 -14 -11 -7 -35 -17 -52 -21 -18 -3 -33 -11 -33 -16 0 -5 -7
-9 -17 -9 -23 0 -225 -102 -230 -117 -3 -7 -16 -13 -29 -13 -14 0 -27 -7 -30
-15 -4 -8 -14 -15 -24 -15 -10 0 -23 -7 -30 -15 -7 -8 -17 -15 -21 -15 -12 0
-109 -72 -109 -81 0 -4 -10 -9 -23 -13 -12 -3 -36 -18 -52 -34 -17 -15 -57
-49 -90 -74 -84 -64 -272 -256 -345 -351 -21 -29 -53 -68 -69 -87 -17 -19 -31
-40 -31 -47 0 -6 -14 -27 -30 -45 -17 -18 -30 -38 -30 -45 0 -7 -8 -22 -17
-32 -32 -35 -40 -47 -47 -69 -4 -12 -11 -22 -15 -22 -4 0 -45 -75 -90 -167
-46 -93 -89 -180 -97 -195 -8 -14 -14 -35 -14 -46 0 -11 -7 -22 -15 -26 -9 -3
-15 -18 -15 -34 0 -16 -7 -35 -15 -42 -8 -7 -15 -25 -15 -40 0 -15 -7 -33 -15
-40 -8 -7 -15 -22 -15 -34 0 -12 -7 -31 -15 -42 -8 -10 -15 -33 -15 -50 0 -17
-7 -37 -15 -44 -9 -8 -15 -30 -15 -57 0 -30 -5 -45 -15 -49 -10 -4 -15 -20
-15 -49 0 -26 -6 -47 -15 -55 -9 -8 -15 -30 -15 -57 0 -26 -6 -51 -15 -59 -9
-9 -15 -34 -15 -62 0 -26 -7 -56 -15 -66 -9 -12 -15 -42 -15 -77 0 -38 -5 -61
-15 -69 -11 -9 -15 -32 -15 -79 0 -44 -5 -74 -15 -87 -10 -13 -15 -46 -15
-104 0 -58 -5 -91 -15 -104 -11 -15 -15 -48 -15 -127 0 -82 -3 -109 -15 -119
-11 -9 -15 -35 -15 -105 l0 -93 -150 -4 c-102 -2 -153 -7 -162 -15 -6 -7 -36
-13 -66 -13 -30 0 -68 -6 -85 -14 -18 -8 -54 -16 -81 -19 -27 -3 -52 -10 -56
-17 -4 -7 -26 -15 -49 -17 -22 -2 -53 -10 -68 -18 -16 -8 -37 -15 -48 -15 -11
0 -29 -7 -39 -15 -11 -8 -30 -15 -43 -15 -13 0 -26 -7 -29 -15 -4 -9 -19 -15
-39 -15 -18 0 -38 -7 -45 -15 -7 -8 -23 -15 -37 -15 -13 0 -26 -7 -29 -15 -4
-8 -17 -15 -30 -15 -14 0 -27 -7 -30 -15 -4 -8 -16 -15 -29 -15 -12 0 -28 -7
-35 -15 -7 -8 -21 -15 -32 -15 -10 0 -21 -7 -24 -15 -4 -8 -14 -15 -24 -15
-10 0 -25 -7 -34 -15 -8 -8 -18 -15 -21 -15 -10 0 -127 -71 -143 -87 -7 -7
-19 -13 -25 -13 -7 0 -27 -13 -45 -30 -18 -16 -39 -30 -45 -30 -7 0 -27 -13
-45 -30 -18 -16 -36 -30 -39 -30 -6 0 -83 -58 -98 -74 -5 -6 -28 -23 -50 -37
-22 -14 -51 -38 -65 -52 -14 -15 -29 -27 -34 -27 -11 0 -147 -118 -159 -137
-4 -7 -12 -13 -18 -13 -12 0 -24 -10 -97 -78 -31 -30 -79 -71 -107 -92 -27
-21 -69 -56 -92 -77 -22 -21 -72 -63 -109 -93 -37 -30 -83 -70 -101 -87 -19
-18 -36 -33 -39 -33 -6 0 -71 -49 -104 -77 -28 -24 -110 -83 -116 -83 -3 0
-23 -13 -44 -30 -21 -16 -41 -30 -45 -30 -4 0 -24 -13 -44 -28 -20 -16 -56
-39 -81 -51 -25 -12 -65 -33 -89 -47 -24 -13 -50 -24 -56 -24 -7 0 -18 -7 -25
-15 -7 -8 -23 -15 -35 -15 -12 0 -28 -7 -35 -15 -7 -8 -29 -15 -49 -15 -21 0
-46 -7 -57 -15 -10 -8 -35 -15 -54 -15 -19 0 -48 -7 -64 -15 -41 -22 -411 -22
-452 0 -16 8 -52 15 -80 15 -34 0 -56 5 -64 15 -7 8 -28 15 -47 15 -19 0 -41
7 -49 15 -9 8 -28 15 -43 15 -16 0 -34 7 -41 15 -7 8 -22 15 -34 15 -12 0 -31
7 -42 15 -10 8 -29 15 -40 15 -12 0 -27 7 -34 15 -7 8 -20 15 -30 15 -10 0
-23 7 -30 15 -7 8 -20 15 -30 15 -10 0 -23 7 -30 15 -7 8 -20 15 -30 15 -10 0
-23 7 -30 15 -7 8 -21 15 -31 15 -10 0 -20 4 -24 10 -6 10 -189 120 -200 120
-4 0 -21 11 -38 24 -18 14 -43 30 -57 36 -36 16 -70 36 -83 49 -6 6 -19 11
-29 11 -10 0 -21 7 -24 15 -4 8 -17 15 -30 15 -12 0 -27 6 -31 13 -9 13 -37
32 -70 46 -11 6 -24 15 -28 20 -3 6 -14 11 -24 11 -10 0 -24 7 -31 15 -7 8
-21 15 -31 15 -10 0 -22 6 -26 13 -8 14 -95 68 -127 80 -37 14 -63 -37 -31
-63 8 -7 15 -25 15 -39 0 -15 7 -36 15 -47 8 -10 15 -31 15 -45 0 -14 7 -34
15 -45 8 -10 15 -28 15 -39 0 -11 7 -33 15 -49 8 -15 15 -36 15 -45 1 -9 9
-34 20 -56 11 -22 19 -47 20 -57 0 -9 5 -18 11 -20 5 -2 12 -21 14 -42 2 -21
8 -42 13 -45 5 -3 12 -24 16 -45 4 -21 14 -45 22 -53 8 -8 14 -26 14 -41 0
-15 7 -36 15 -46 8 -11 15 -31 15 -45 0 -14 7 -35 15 -45 8 -11 15 -31 15 -45
0 -14 7 -35 15 -45 8 -11 15 -31 15 -45 0 -14 7 -35 15 -45 8 -11 15 -30 15
-42 0 -12 7 -27 15 -34 8 -7 15 -27 15 -45 0 -18 7 -38 15 -45 8 -7 15 -24 15
-39 0 -14 7 -35 15 -45 8 -11 15 -31 15 -45 0 -14 7 -35 15 -45 8 -11 15 -30
15 -43 0 -13 7 -26 15 -29 9 -4 15 -19 15 -39 0 -18 7 -38 15 -45 8 -7 15 -24
15 -39 0 -14 7 -35 15 -45 8 -11 15 -30 15 -42 0 -12 7 -27 15 -34 8 -7 15
-21 15 -32 0 -11 6 -32 13 -46 8 -15 21 -42 30 -60 9 -19 17 -42 17 -53 0 -11
7 -22 15 -25 8 -4 15 -18 15 -34 0 -15 7 -33 15 -40 8 -7 15 -23 15 -36 0 -12
7 -29 15 -38 8 -8 15 -23 15 -34 0 -11 7 -25 15 -32 8 -7 15 -20 15 -30 0 -10
7 -23 15 -30 8 -7 15 -20 15 -30 0 -23 190 -403 207 -413 7 -4 13 -19 13 -32
0 -14 4 -25 9 -25 5 0 14 -12 20 -27 6 -16 15 -36 21 -45 16 -28 27 -49 52
-97 13 -24 28 -46 35 -48 7 -3 13 -12 13 -20 0 -8 14 -32 30 -53 17 -21 30
-43 30 -49 0 -6 20 -40 45 -77 25 -36 45 -67 45 -70 0 -9 75 -104 82 -104 4 0
8 -5 8 -10 0 -14 72 -110 82 -110 4 0 8 -5 8 -11 0 -6 21 -37 48 -70 26 -33
60 -77 75 -97 16 -20 36 -44 45 -54 9 -10 53 -57 97 -105 84 -92 277 -275 297
-282 6 -2 23 -16 37 -31 23 -24 198 -159 260 -200 13 -8 34 -23 46 -32 13 -10
28 -18 33 -18 5 0 12 -7 16 -15 3 -8 12 -15 20 -15 8 0 32 -12 53 -26 21 -14
47 -30 58 -35 11 -5 28 -13 38 -19 82 -47 258 -131 288 -137 16 -3 29 -9 29
-14 0 -5 18 -12 40 -15 22 -4 45 -13 51 -20 6 -8 21 -14 33 -14 12 0 31 -7 42
-15 10 -8 38 -15 60 -15 28 0 44 -5 48 -15 3 -10 19 -15 44 -15 21 0 47 -7 58
-15 11 -8 42 -14 75 -15 38 0 61 -5 69 -15 9 -11 33 -15 90 -15 57 0 81 -4 90
-15 10 -12 42 -15 167 -15 127 0 155 -3 159 -15 5 -12 33 -15 169 -15 132 0
165 3 175 15 10 12 43 15 180 15 137 0 170 3 180 15 9 11 34 15 99 15 58 0 93
5 106 14 11 8 47 16 80 18 50 3 63 0 77 -17 10 -11 17 -29 18 -41 0 -11 7 -29
15 -40 8 -10 15 -29 15 -40 0 -12 7 -27 15 -34 8 -7 15 -21 15 -31 0 -9 7 -25
16 -33 8 -9 17 -27 20 -41 5 -28 58 -131 80 -156 8 -8 14 -23 14 -31 0 -9 7
-21 15 -28 8 -7 15 -21 15 -31 0 -10 4 -20 9 -23 5 -3 19 -25 31 -48 12 -24
28 -47 36 -51 8 -4 14 -16 14 -26 0 -10 13 -31 30 -47 16 -16 30 -35 30 -41 0
-12 72 -118 104 -155 9 -10 29 -37 46 -60 79 -109 311 -348 420 -431 36 -28
68 -55 71 -60 6 -8 37 -28 69 -43 8 -4 18 -12 22 -17 8 -12 93 -63 131 -78 15
-6 27 -15 27 -20 0 -5 8 -9 19 -9 10 0 24 -7 31 -15 7 -8 22 -15 34 -15 11 0
35 -9 51 -20 17 -11 37 -20 46 -20 9 0 30 -7 45 -15 16 -8 39 -15 50 -15 12 0
35 -7 50 -15 16 -8 43 -15 60 -15 17 0 37 -7 44 -15 7 -8 27 -15 44 -15 17 0
40 -7 50 -15 11 -8 37 -15 59 -15 21 0 45 -7 53 -15 11 -11 37 -15 93 -15 58
0 82 -4 91 -15 10 -12 37 -15 119 -15 77 -1 111 -5 125 -15 30 -22 564 -22
572 0 5 12 27 15 114 15 83 0 112 4 124 15 9 10 34 15 68 15 32 0 62 6 74 15
10 8 37 15 60 15 22 0 49 7 60 15 10 8 33 15 49 15 17 0 39 6 50 14 11 7 37
16 58 20 20 4 37 11 37 16 0 6 10 10 23 10 12 1 40 9 62 20 22 11 45 19 51 20
6 0 17 7 24 15 7 8 23 15 35 15 13 0 25 7 29 15 3 8 16 15 29 15 13 0 44 11
68 25 24 14 51 27 59 31 8 3 22 10 30 15 8 5 25 13 38 19 12 5 22 14 22 20 0
5 11 10 24 10 13 0 26 7 30 15 3 8 12 15 20 15 12 0 101 52 131 77 6 5 28 19
50 33 22 13 44 30 48 37 4 7 16 13 26 13 10 0 31 13 47 30 16 16 33 30 38 30
10 0 107 70 184 132 29 24 59 45 66 48 7 3 32 22 57 42 76 64 172 142 214 173
22 16 55 44 73 62 39 40 47 41 64 8 15 -27 240 -258 304 -311 23 -19 46 -34
53 -34 6 0 11 -4 11 -8 0 -10 96 -82 109 -82 6 0 14 -6 18 -14 4 -8 27 -24 51
-36 23 -12 42 -26 42 -31 0 -5 8 -9 18 -9 11 0 29 -9 42 -20 12 -11 56 -36 96
-56 41 -20 77 -41 80 -45 3 -5 18 -9 34 -9 15 0 30 -7 34 -15 3 -8 16 -15 29
-15 14 0 30 -7 37 -15 7 -8 25 -15 40 -15 15 0 33 -7 40 -15 7 -8 22 -15 34
-15 12 0 31 -7 42 -15 10 -8 31 -15 45 -15 14 0 34 -7 45 -15 10 -8 35 -15 55
-15 19 0 44 -7 55 -15 10 -8 37 -15 60 -15 22 0 49 -7 60 -15 11 -8 42 -15 74
-15 30 0 68 -7 85 -16 18 -9 69 -17 130 -21 55 -3 106 -11 114 -17 20 -16 732
-15 752 0 8 6 63 14 122 17 80 4 113 9 126 21 12 11 37 16 83 16 39 0 77 6 94
15 16 8 48 15 70 15 25 0 47 6 54 15 8 9 30 15 60 15 30 0 52 6 60 15 7 9 30
15 54 15 22 0 50 7 60 15 11 8 34 15 52 15 17 0 37 7 44 15 7 8 25 15 40 15
15 0 33 7 40 15 7 8 25 15 40 15 15 0 33 7 40 15 7 8 22 15 34 15 12 0 31 7
42 15 10 8 29 15 42 15 12 0 25 7 28 15 4 8 15 15 25 15 20 0 264 123 290 146
8 8 23 14 32 14 9 0 19 5 22 11 4 5 17 14 28 20 28 12 53 27 98 62 20 15 40
27 44 27 8 0 82 56 108 82 10 10 24 18 31 18 7 0 33 20 58 45 25 25 51 45 58
45 19 0 321 308 369 377 24 35 47 63 50 63 4 0 15 17 26 37 11 20 32 51 48 67
15 17 27 38 27 48 0 9 6 21 14 25 8 4 31 40 51 78 20 39 40 77 44 85 31 55 81
170 81 184 0 10 7 24 15 32 8 9 15 29 15 45 0 17 7 37 15 45 8 9 15 30 15 47
0 18 7 41 15 51 8 11 15 41 15 67 0 29 5 49 12 51 9 3 14 33 16 90 l4 86 61
-5 c34 -3 68 -11 76 -17 20 -15 689 -16 699 0 4 6 45 14 92 17 60 5 86 11 93
22 6 11 25 15 73 15 45 0 70 5 80 15 9 9 34 15 58 15 27 0 48 6 56 15 7 8 27
15 45 15 18 0 38 7 45 15 7 8 27 15 45 15 18 0 38 7 45 15 7 8 27 15 45 15 18
0 38 7 45 15 7 8 24 15 39 15 14 0 35 7 45 15 11 8 27 15 37 15 9 0 22 7 29
15 7 8 23 15 35 15 12 0 28 7 35 15 7 8 18 15 26 15 20 0 267 128 280 145 6 8
21 15 32 15 11 0 24 5 27 11 4 5 17 15 28 20 12 5 36 18 52 29 17 11 39 24 50
30 62 33 255 162 288 194 15 14 34 26 41 26 7 0 33 20 58 45 25 25 51 45 57
45 16 0 339 323 389 390 23 30 65 84 92 120 89 114 95 123 102 142 4 10 19 31
33 46 14 15 25 31 25 36 0 5 22 42 50 83 28 40 50 79 50 86 0 7 5 18 11 24 15
15 28 39 89 163 28 58 56 112 61 120 5 8 12 22 15 30 3 8 12 28 20 43 7 16 14
37 14 47 0 9 7 23 15 30 8 7 15 22 15 34 0 12 7 31 15 42 8 10 15 31 15 45 0
15 7 32 15 39 8 7 15 28 15 47 0 21 6 36 15 39 10 4 15 20 15 44 0 21 7 43 15
50 8 7 15 27 15 44 0 18 7 41 15 52 8 10 15 38 15 61 0 23 7 48 15 57 9 9 15
33 15 64 0 32 5 54 15 62 9 7 15 29 15 54 0 22 6 53 14 67 7 15 16 57 19 93 3
37 10 73 16 80 5 6 11 50 12 97 1 49 7 95 15 111 10 18 16 81 21 180 3 85 10
159 16 167 15 18 15 634 0 652 -5 8 -13 85 -17 173 -4 99 -12 166 -20 180 -7
12 -14 61 -15 111 -2 50 -8 96 -13 103 -6 7 -13 43 -16 80 -2 37 -8 72 -13 78
-5 6 -11 37 -15 70 -4 32 -13 68 -20 79 -8 11 -14 40 -14 66 0 29 -6 51 -15
59 -9 8 -15 30 -15 59 0 25 -7 55 -15 65 -8 11 -15 34 -15 52 0 17 -7 37 -15
44 -8 7 -15 29 -15 50 0 24 -5 40 -15 44 -10 3 -15 19 -15 45 0 25 -5 41 -15
45 -10 3 -15 19 -15 46 0 27 -5 43 -15 46 -9 4 -15 19 -15 39 0 18 -7 38 -15
45 -8 7 -15 23 -15 35 0 12 -7 28 -15 35 -8 7 -15 25 -15 40 0 15 -7 33 -15
40 -8 7 -15 23 -15 35 0 12 -7 28 -15 35 -8 7 -15 23 -15 37 0 13 -7 26 -15
29 -8 4 -15 17 -15 30 0 14 -7 27 -15 30 -8 4 -15 16 -15 29 0 12 -7 28 -15
35 -8 7 -15 20 -15 30 0 10 -7 23 -15 30 -8 7 -15 20 -15 30 0 10 -7 23 -15
30 -8 7 -15 20 -15 30 0 10 -7 23 -15 30 -8 6 -17 21 -21 33 -4 12 -12 27 -18
34 -28 32 -36 43 -36 52 0 8 -33 62 -80 131 -6 8 -34 51 -63 95 -52 80 -87
125 -119 154 -10 8 -18 19 -18 24 0 12 -56 83 -106 133 -23 22 -43 46 -45 52
-5 13 -182 196 -208 214 -11 8 -60 53 -110 101 -51 48 -96 87 -101 87 -4 0
-35 22 -67 50 -32 27 -62 50 -67 50 -6 0 -19 9 -30 19 -12 11 -35 27 -52 38
-16 10 -59 37 -95 60 -35 24 -69 43 -75 43 -7 0 -14 7 -18 15 -3 8 -17 15 -31
15 -14 0 -28 7 -31 15 -4 8 -12 15 -19 15 -7 0 -18 7 -25 15 -7 8 -20 15 -30
15 -10 0 -23 7 -30 15 -7 8 -26 15 -42 15 -16 0 -31 6 -34 15 -4 8 -17 15 -30
15 -14 0 -27 7 -30 15 -4 8 -17 15 -29 15 -13 0 -30 7 -39 15 -8 8 -26 15 -40
15 -13 0 -31 7 -40 15 -8 8 -21 15 -28 15 -7 1 -31 9 -53 20 -22 11 -54 19
-71 20 -17 0 -37 7 -44 15 -7 8 -27 15 -44 15 -17 0 -40 7 -50 15 -11 8 -38
15 -60 15 -23 0 -50 7 -60 15 -12 9 -42 15 -77 15 -38 0 -61 5 -69 15 -9 11
-34 15 -95 15 -64 0 -84 3 -89 15 -5 13 -54 15 -361 15 -341 0 -355 1 -355 19
0 10 -7 24 -15 31 -9 7 -15 29 -15 52 0 25 -5 41 -15 44 -10 4 -15 20 -15 45
0 26 -5 42 -15 45 -8 4 -15 18 -15 33 0 15 -7 36 -15 47 -8 10 -15 29 -15 40
0 12 -7 27 -15 34 -8 7 -15 21 -15 32 0 11 -7 32 -15 46 -8 15 -25 52 -39 82
-14 30 -39 78 -55 105 -17 28 -37 64 -46 80 -26 51 -56 99 -76 121 -10 11 -19
27 -19 35 0 9 -13 29 -30 45 -16 16 -30 33 -30 38 0 11 -61 89 -77 99 -7 4
-13 13 -13 18 0 19 -86 114 -253 281 -93 93 -175 168 -182 168 -8 0 -18 6 -22
13 -10 16 -88 77 -99 77 -5 0 -22 14 -38 30 -16 17 -36 30 -45 30 -9 0 -29 14
-45 30 -16 16 -38 33 -50 36 -12 4 -23 10 -26 13 -8 12 -127 81 -138 81 -5 0
-15 7 -22 15 -7 8 -20 15 -30 15 -10 0 -23 7 -30 15 -7 8 -21 15 -32 15 -10 0
-21 7 -24 15 -4 8 -16 15 -29 15 -12 0 -28 7 -35 15 -7 8 -20 15 -29 15 -10 0
-26 7 -37 15 -10 8 -32 15 -47 15 -15 0 -30 7 -33 15 -4 8 -14 15 -23 15 -9 1
-34 9 -56 20 -22 11 -47 19 -56 20 -9 0 -30 7 -45 15 -16 8 -42 15 -57 15 -16
0 -35 7 -43 15 -9 8 -30 15 -47 15 -18 0 -41 7 -51 15 -11 8 -40 15 -64 15
-25 0 -50 6 -58 15 -10 10 -35 15 -73 15 -40 0 -63 5 -71 15 -9 11 -34 15 -95
15 -61 0 -86 4 -95 15 -10 12 -42 15 -167 15 -127 0 -155 3 -159 15 -9 22
-450 22 -480 0z m716 -35 c36 -6 99 -14 140 -19 41 -6 95 -14 120 -20 217 -49
360 -85 387 -97 17 -8 37 -14 45 -14 7 0 45 -12 83 -26 39 -14 84 -30 102 -35
18 -5 35 -14 38 -19 4 -6 13 -10 20 -10 13 0 91 -34 235 -103 181 -87 453
-271 629 -426 81 -71 256 -249 292 -296 13 -16 29 -36 36 -43 19 -20 183 -240
183 -246 0 -3 13 -24 29 -48 46 -70 76 -125 147 -268 88 -179 104 -214 104
-233 0 -9 4 -18 9 -22 5 -3 12 -19 16 -36 4 -17 13 -42 21 -57 8 -15 14 -34
14 -43 0 -9 7 -30 15 -45 8 -16 15 -39 15 -52 0 -13 7 -36 15 -52 l16 -30 277
0 c152 -1 309 -5 347 -10 39 -6 111 -15 160 -20 50 -6 97 -14 105 -17 8 -4 44
-12 80 -19 111 -21 275 -65 309 -83 11 -6 29 -11 40 -11 20 0 66 -17 124 -46
16 -8 35 -14 42 -14 7 0 26 -6 42 -14 29 -14 87 -40 113 -50 8 -3 22 -10 30
-15 8 -5 49 -25 90 -45 41 -20 82 -41 90 -46 8 -5 56 -32 105 -61 176 -104
330 -218 505 -375 146 -131 282 -275 378 -399 25 -33 56 -70 68 -83 12 -13 48
-62 81 -110 32 -48 61 -89 64 -92 5 -5 96 -152 143 -233 15 -26 56 -100 97
-177 20 -37 137 -290 154 -330 17 -45 29 -72 59 -143 9 -21 16 -45 16 -55 0
-9 7 -26 15 -36 8 -11 15 -31 15 -45 0 -14 7 -35 15 -45 8 -11 15 -31 15 -45
0 -14 7 -35 15 -45 8 -11 15 -30 15 -43 0 -12 6 -37 14 -55 13 -33 33 -99 42
-148 3 -14 11 -47 19 -75 23 -86 38 -148 46 -200 4 -27 13 -75 19 -105 26
-129 32 -170 40 -252 4 -47 11 -92 16 -99 4 -7 11 -78 15 -158 4 -80 13 -224
20 -319 10 -138 10 -208 0 -340 -7 -92 -16 -225 -20 -297 -4 -71 -13 -161 -19
-200 -15 -95 -33 -210 -42 -270 -12 -78 -31 -167 -42 -200 -6 -16 -13 -50 -17
-75 -4 -25 -12 -61 -18 -80 -6 -19 -19 -62 -28 -95 -9 -33 -21 -73 -27 -90 -5
-16 -13 -47 -18 -68 -4 -21 -13 -44 -19 -50 -6 -6 -11 -19 -11 -29 0 -9 -6
-32 -14 -50 -8 -18 -22 -53 -31 -78 -9 -25 -23 -58 -30 -75 -7 -16 -23 -55
-35 -85 -21 -51 -129 -275 -150 -310 -51 -87 -100 -171 -100 -175 0 -8 -128
-195 -199 -290 -133 -177 -275 -331 -416 -452 -33 -28 -82 -70 -109 -93 -27
-23 -61 -49 -75 -58 -14 -9 -28 -19 -31 -23 -7 -9 -211 -144 -240 -159 -14 -7
-27 -16 -30 -20 -5 -6 -105 -65 -140 -83 -8 -4 -42 -23 -75 -42 -101 -58 -405
-205 -425 -205 -4 0 -21 -7 -36 -15 -16 -8 -36 -15 -44 -15 -9 0 -21 -5 -27
-11 -6 -6 -26 -14 -44 -19 -32 -8 -55 -15 -139 -45 -19 -7 -64 -20 -100 -30
-36 -9 -85 -23 -110 -31 -25 -8 -60 -14 -78 -14 -18 0 -43 -5 -55 -12 -12 -6
-56 -15 -97 -19 -41 -4 -97 -12 -125 -19 -68 -15 -566 -14 -620 1 -22 7 -72
14 -111 16 l-71 4 -11 -83 c-15 -112 -55 -274 -78 -320 -8 -14 -14 -37 -14
-50 0 -12 -7 -32 -15 -42 -8 -11 -15 -25 -15 -32 0 -12 -49 -128 -71 -167 -5
-10 -26 -48 -46 -85 -19 -37 -42 -74 -49 -83 -8 -8 -14 -19 -14 -22 0 -4 -12
-25 -27 -46 -16 -21 -35 -49 -43 -61 -132 -195 -337 -403 -570 -579 -74 -57
-261 -182 -290 -195 -8 -3 -28 -15 -45 -25 -28 -18 -266 -138 -330 -166 -94
-42 -125 -55 -133 -55 -5 0 -23 -7 -38 -15 -16 -8 -36 -15 -44 -15 -8 0 -24
-7 -34 -15 -11 -8 -28 -15 -38 -15 -9 0 -32 -6 -50 -14 -18 -8 -60 -22 -93
-31 -33 -9 -76 -22 -95 -28 -19 -6 -53 -14 -75 -18 -22 -4 -60 -13 -85 -19
-112 -28 -139 -34 -195 -39 -33 -4 -66 -10 -73 -15 -7 -4 -61 -12 -120 -17
-59 -5 -132 -13 -162 -18 -70 -12 -567 -12 -640 0 -30 5 -98 13 -150 18 -52 5
-120 14 -150 21 -30 6 -89 18 -130 26 -130 27 -406 110 -416 125 -3 5 -14 9
-25 9 -18 0 -56 16 -228 97 -126 60 -343 196 -437 275 -150 125 -256 229 -334
327 -22 27 -41 41 -57 41 -13 0 -23 -4 -23 -8 0 -4 -23 -26 -52 -47 -28 -22
-56 -44 -62 -50 -77 -73 -512 -399 -586 -441 -11 -6 -28 -18 -38 -27 -10 -10
-21 -17 -24 -17 -3 0 -38 -22 -79 -49 -76 -49 -146 -90 -281 -160 -98 -51
-106 -55 -148 -73 -19 -8 -51 -22 -70 -30 -19 -9 -62 -26 -95 -38 -33 -13 -69
-26 -80 -30 -115 -44 -223 -74 -380 -106 -318 -64 -712 -71 -1050 -19 -49 8
-115 17 -145 20 -60 7 -59 7 -235 60 -66 21 -145 44 -175 53 -133 37 -158 47
-281 106 -235 114 -521 348 -703 576 -86 108 -184 238 -206 275 -13 22 -27 42
-31 45 -3 3 -15 21 -26 40 -10 19 -31 54 -46 78 -32 50 -62 104 -98 177 -9 17
-25 48 -37 70 -21 39 -47 96 -91 200 -12 28 -25 57 -30 65 -5 9 -11 29 -15 45
-4 17 -15 40 -24 53 l-18 23 -84 -16 c-47 -8 -119 -20 -160 -25 -41 -6 -102
-15 -135 -21 -33 -6 -121 -13 -195 -15 -74 -3 -142 -8 -150 -11 -42 -14 -525
5 -645 26 -38 7 -95 16 -125 21 -30 5 -86 17 -125 25 -38 9 -92 20 -120 26
-27 6 -54 14 -60 19 -5 5 -28 11 -50 15 -22 4 -44 11 -50 15 -5 4 -23 10 -40
14 -16 4 -43 13 -60 20 -16 8 -50 22 -75 31 -209 81 -475 227 -665 367 -118
87 -253 204 -426 369 -83 79 -249 272 -366 426 -54 71 -253 361 -253 368 0 2
-12 23 -27 47 -46 72 -53 82 -146 248 -64 113 -283 563 -327 670 -12 30 -29
70 -36 87 -8 18 -21 49 -29 68 -8 19 -21 50 -29 68 -7 17 -21 52 -31 77 -17
44 -27 67 -59 143 -9 21 -16 45 -16 55 0 9 -7 26 -15 36 -8 11 -15 29 -15 41
0 12 -4 25 -9 30 -10 10 -66 165 -81 223 -4 18 -12 38 -18 45 -5 7 -12 23 -15
37 -3 14 -15 50 -27 80 -12 30 -26 73 -31 95 -6 21 -13 44 -18 50 -4 5 -18 44
-30 85 -13 41 -28 79 -32 85 -5 5 -9 18 -9 30 0 11 -7 33 -15 49 -8 15 -15 36
-15 45 0 10 -7 26 -15 37 -8 10 -15 30 -15 44 0 14 -6 34 -14 45 -7 11 -17 36
-21 55 -4 19 -11 41 -16 50 -4 8 -24 65 -44 125 -19 61 -39 119 -44 130 -14
33 -31 91 -31 104 0 18 33 5 128 -50 45 -27 85 -49 88 -49 2 0 23 -12 47 -27
63 -41 80 -51 103 -62 11 -5 51 -28 88 -50 36 -23 69 -41 71 -41 3 0 60 -33
128 -73 67 -39 133 -78 147 -85 14 -7 52 -28 85 -47 33 -18 80 -43 105 -55
102 -49 170 -80 176 -80 3 0 20 -6 37 -14 79 -34 202 -71 326 -96 91 -19 128
-21 285 -18 194 5 287 22 421 79 11 4 45 18 75 31 30 12 73 33 95 45 22 12 50
27 63 33 35 15 269 172 353 237 105 80 222 175 234 189 6 6 37 33 70 60 33 27
76 63 95 80 76 68 238 205 330 280 19 16 37 31 40 34 21 22 377 290 386 290 3
0 23 12 43 28 20 15 45 32 56 39 11 7 61 36 110 66 50 30 124 71 165 91 41 21
82 41 90 46 31 18 150 70 161 70 6 0 23 6 37 14 30 15 64 27 162 57 36 11 79
25 95 31 17 6 50 14 75 18 25 4 65 12 90 18 81 21 233 42 343 48 l107 6 1 31
c0 18 2 41 4 52 18 104 25 157 25 197 0 26 6 83 14 125 8 43 20 116 26 163 17
130 27 191 38 240 5 25 18 81 27 125 9 44 21 98 27 120 5 22 13 56 18 75 18
77 41 166 49 185 5 11 18 54 31 95 12 41 25 84 30 95 4 11 18 49 31 85 12 36
26 69 31 75 4 5 8 15 8 23 0 7 8 32 19 55 10 23 24 57 32 76 21 51 169 344
182 361 7 8 21 31 31 50 11 19 22 37 26 40 3 3 17 23 30 45 64 107 256 341
357 435 112 105 148 136 233 201 80 62 207 148 240 162 8 4 29 16 45 26 43 28
198 104 275 135 36 15 74 31 85 35 61 26 87 35 154 57 40 13 81 24 90 24 9 0
21 4 26 9 6 5 35 15 65 21 200 42 187 39 375 71 39 6 122 15 185 20 63 4 153
10 200 14 110 10 301 10 415 0 50 -4 143 -9 208 -12 103 -5 120 -3 137 12 11
10 22 26 25 36 21 64 147 267 261 419 98 130 110 145 264 300 190 192 387 349
585 467 11 6 56 34 100 60 70 42 303 160 390 198 137 58 180 75 194 75 9 0 25
7 35 15 11 8 27 15 35 15 9 0 29 7 45 15 15 8 37 15 48 15 11 0 28 5 39 11 24
12 103 36 169 49 25 6 54 14 65 20 11 5 47 14 80 21 33 6 92 17 130 25 39 7
102 18 140 24 39 6 99 16 135 22 36 6 119 15 185 19 159 10 742 2 825 -11z"/>
<path d="M13785 22759 c-99 -3 -198 -11 -220 -17 -22 -6 -69 -12 -106 -12 -36
0 -70 -5 -75 -10 -6 -6 -35 -13 -65 -16 -30 -3 -69 -10 -88 -16 -35 -11 -119
-31 -206 -49 -27 -6 -54 -14 -60 -19 -5 -4 -29 -11 -52 -15 -24 -4 -45 -10
-48 -15 -3 -4 -20 -11 -39 -14 -20 -4 -48 -13 -63 -21 -15 -8 -33 -15 -40 -15
-7 0 -29 -7 -50 -16 -21 -9 -54 -23 -73 -31 -104 -45 -171 -74 -190 -84 -8 -4
-64 -33 -125 -64 -110 -56 -148 -78 -280 -164 -78 -50 -185 -128 -200 -145 -5
-6 -40 -35 -76 -63 -92 -73 -300 -290 -391 -410 -43 -56 -78 -104 -78 -107 0
-2 -19 -33 -42 -68 -59 -89 -62 -93 -103 -178 -20 -41 -50 -102 -66 -135 -16
-33 -29 -66 -29 -73 0 -8 -6 -26 -14 -40 -18 -37 -36 -88 -48 -142 -6 -25 -14
-49 -18 -55 -4 -5 -11 -32 -15 -60 -4 -27 -10 -54 -13 -60 -9 -13 -29 -137
-41 -255 -12 -113 -13 -410 -1 -530 14 -147 55 -379 71 -405 4 -5 10 -26 14
-45 4 -19 11 -41 16 -50 4 -8 26 -53 49 -100 50 -101 53 -107 106 -186 85
-126 253 -298 406 -415 64 -49 119 -89 122 -89 2 0 33 -19 68 -42 35 -24 86
-54 113 -68 28 -14 52 -28 53 -32 2 -5 8 -8 13 -8 12 0 134 -53 201 -87 14 -7
37 -13 50 -13 13 0 29 -5 35 -11 6 -6 29 -15 50 -19 21 -5 52 -13 68 -18 57
-20 120 -34 191 -43 40 -5 84 -13 99 -19 35 -13 400 -13 425 0 11 6 47 13 82
17 35 3 72 12 83 19 11 8 30 14 42 14 12 0 39 7 60 16 71 31 188 87 193 94 3
3 23 17 45 30 97 59 253 220 305 316 12 21 30 53 41 69 10 17 21 37 25 45 8
20 19 45 43 102 12 26 21 53 21 61 0 8 7 28 15 43 8 16 15 39 15 52 0 12 7 39
15 59 8 19 15 46 15 58 0 12 7 39 15 58 18 43 21 211 4 254 -6 15 -14 48 -19
73 -4 25 -13 60 -19 78 -6 17 -16 47 -22 65 -6 17 -14 46 -17 62 -2 17 -11 39
-18 50 -8 11 -14 29 -14 41 0 12 -6 35 -14 51 -52 103 -54 327 -5 413 5 8 13
24 18 36 13 29 87 104 103 104 12 -1 142 -255 188 -370 12 -30 28 -68 35 -85
7 -16 21 -55 30 -85 10 -30 22 -63 26 -72 8 -16 12 -31 39 -138 7 -25 18 -65
26 -90 8 -25 14 -63 14 -85 0 -23 6 -47 13 -53 9 -10 12 -80 12 -282 0 -202
-3 -272 -12 -281 -7 -7 -13 -28 -13 -46 0 -19 -7 -50 -15 -70 -8 -19 -15 -43
-15 -52 0 -9 -6 -27 -13 -41 -7 -14 -21 -47 -32 -75 -40 -108 -154 -274 -259
-381 -135 -136 -354 -272 -561 -347 -92 -33 -112 -39 -153 -48 -23 -5 -51 -13
-61 -19 -11 -5 -34 -10 -52 -10 -18 0 -58 -6 -88 -14 -81 -21 -257 -36 -411
-36 -149 0 -368 16 -416 31 -17 5 -62 13 -100 19 -72 10 -138 25 -189 42 -16
5 -46 14 -65 18 -45 10 -97 28 -133 46 -16 8 -36 14 -45 14 -9 0 -26 7 -36 15
-11 8 -26 15 -33 15 -15 0 -202 90 -288 138 -206 115 -434 299 -563 455 -31
38 -67 80 -80 94 -63 68 -195 295 -267 458 -25 57 -75 213 -75 237 -1 12 -7
34 -15 48 -8 14 -14 41 -15 61 0 19 -6 58 -14 85 -36 123 -36 633 0 775 8 31
14 76 14 100 1 24 7 55 15 69 8 14 14 43 15 66 0 22 7 49 15 60 8 10 15 35 15
54 0 19 7 46 15 60 8 14 15 39 15 55 0 17 7 39 15 49 8 11 15 30 15 42 0 21
-5 22 -140 29 -188 10 -618 -3 -695 -21 -33 -7 -81 -14 -106 -14 -26 0 -63 -7
-82 -15 -20 -8 -52 -15 -72 -15 -20 0 -52 -7 -72 -15 -19 -8 -46 -15 -60 -15
-13 0 -36 -6 -51 -14 -15 -7 -46 -17 -69 -21 -24 -4 -45 -11 -49 -16 -3 -5
-13 -9 -22 -9 -9 0 -30 -7 -46 -15 -15 -8 -33 -15 -38 -15 -19 0 -280 -126
-333 -160 -16 -11 -37 -23 -45 -27 -25 -12 -141 -94 -215 -152 -66 -51 -198
-180 -291 -281 -41 -46 -164 -205 -164 -213 0 -3 -19 -33 -42 -68 -48 -71 -73
-116 -148 -269 -50 -100 -62 -127 -94 -202 -7 -18 -21 -50 -30 -71 -9 -21 -16
-42 -16 -48 0 -6 -6 -25 -13 -42 -38 -90 -97 -295 -141 -487 -7 -30 -15 -62
-19 -70 -3 -8 -11 -44 -17 -80 -6 -36 -18 -103 -26 -150 -22 -120 -48 -317
-74 -545 -6 -55 -15 -181 -21 -279 -5 -99 -11 -182 -14 -185 -3 -2 -117 -5
-253 -6 -208 -1 -265 -5 -362 -23 -167 -32 -302 -65 -357 -88 -17 -8 -38 -14
-46 -14 -9 0 -29 -7 -46 -15 -17 -8 -45 -22 -62 -30 -17 -8 -39 -15 -49 -15
-9 0 -23 -7 -30 -15 -7 -8 -20 -15 -30 -15 -10 0 -23 -7 -30 -15 -7 -8 -18
-15 -25 -15 -6 0 -32 -11 -56 -25 -24 -14 -56 -30 -71 -36 -16 -6 -28 -15 -28
-20 0 -5 -6 -9 -13 -9 -8 0 -33 -13 -55 -30 -23 -16 -46 -30 -50 -30 -5 0 -18
-8 -30 -17 -12 -10 -44 -34 -73 -53 -151 -103 -327 -240 -518 -402 -31 -27
-83 -69 -115 -95 -33 -27 -67 -55 -76 -63 -37 -34 -109 -97 -155 -135 -26 -22
-53 -45 -59 -50 -20 -19 -158 -129 -199 -160 -23 -16 -51 -38 -62 -48 -30 -28
-293 -202 -350 -233 -27 -15 -72 -38 -100 -51 -27 -14 -63 -31 -78 -39 -16 -8
-34 -14 -42 -14 -7 0 -18 -6 -24 -14 -6 -8 -24 -16 -39 -19 -24 -5 -103 -30
-142 -45 -19 -7 -117 -29 -195 -44 -75 -14 -453 -14 -520 1 -225 47 -344 82
-472 137 -17 8 -36 14 -41 14 -9 0 -52 19 -92 42 -8 4 -22 11 -30 14 -8 3 -22
9 -30 14 -48 27 -158 80 -168 80 -14 0 -8 -38 13 -82 8 -15 16 -41 20 -58 4
-16 11 -32 16 -35 5 -4 9 -16 9 -28 0 -12 7 -35 15 -51 8 -15 15 -36 15 -45 0
-10 7 -26 15 -37 8 -10 15 -26 15 -34 0 -8 7 -28 15 -44 8 -15 15 -33 15 -40
1 -6 9 -29 20 -51 11 -22 19 -47 20 -55 0 -9 4 -20 8 -25 4 -6 18 -37 31 -70
13 -33 29 -74 37 -92 8 -17 14 -36 14 -41 0 -6 6 -23 14 -39 8 -15 19 -39 25
-53 5 -14 19 -46 30 -72 12 -26 21 -49 21 -53 0 -3 14 -36 31 -73 18 -37 38
-83 47 -102 8 -19 19 -42 24 -50 4 -8 11 -22 14 -30 9 -22 94 -202 106 -224 6
-11 27 -51 48 -90 33 -63 76 -143 117 -216 8 -14 23 -38 33 -55 11 -16 25 -41
31 -55 5 -14 21 -39 35 -57 13 -17 24 -34 24 -36 0 -5 62 -103 77 -122 4 -5
26 -37 48 -70 22 -33 43 -62 46 -65 3 -3 23 -30 44 -60 21 -30 41 -57 44 -60
4 -3 24 -27 46 -55 197 -250 468 -505 705 -665 12 -8 33 -23 45 -33 13 -9 25
-17 28 -17 5 0 145 -79 177 -100 8 -6 25 -15 38 -20 13 -5 46 -21 75 -34 29
-13 75 -34 102 -45 28 -12 57 -25 65 -30 9 -5 31 -12 50 -16 19 -4 44 -14 55
-21 11 -8 31 -14 45 -14 14 0 30 -4 36 -9 5 -5 32 -14 59 -20 48 -10 89 -19
178 -42 23 -6 78 -15 122 -19 44 -5 96 -13 115 -19 46 -14 724 -15 750 -1 10
5 66 14 124 19 57 5 111 13 117 17 7 4 43 10 78 13 75 7 84 19 57 76 -9 18
-16 49 -16 68 0 20 -5 48 -11 64 -7 15 -15 64 -20 108 -4 44 -13 100 -18 125
-13 58 -13 342 0 400 5 25 13 77 17 115 4 39 11 76 15 83 5 6 12 33 17 60 7
44 12 61 47 157 30 81 82 193 94 201 5 3 9 11 9 19 0 8 33 63 73 122 170 253
482 512 767 635 19 9 49 21 65 29 166 72 378 130 600 164 115 17 504 20 595 4
30 -5 80 -13 110 -18 72 -11 202 -42 215 -51 6 -4 26 -11 45 -15 19 -4 44 -14
55 -21 11 -8 27 -14 36 -14 10 0 30 -7 46 -15 15 -7 48 -23 73 -35 48 -23 62
-30 128 -72 24 -16 46 -28 49 -28 5 0 81 -57 93 -70 3 -3 31 -27 63 -54 55
-46 207 -233 207 -255 0 -5 6 -16 13 -23 15 -16 77 -143 77 -159 0 -6 6 -25
14 -42 22 -49 36 -111 57 -247 19 -131 22 -215 10 -313 -8 -64 -19 -77 -70
-77 -62 0 -127 101 -231 360 -12 30 -26 62 -31 70 -5 8 -12 22 -15 30 -37 97
-122 243 -208 359 -87 115 -260 237 -386 271 -25 7 -103 18 -175 25 -71 8
-173 18 -225 24 -112 13 -404 13 -475 1 -207 -35 -489 -116 -582 -168 -12 -7
-29 -12 -37 -12 -28 0 -209 -100 -286 -158 -148 -110 -269 -253 -340 -402 -11
-25 -28 -58 -35 -73 -8 -16 -15 -35 -15 -44 0 -8 -6 -29 -14 -46 -48 -108 -70
-266 -71 -497 0 -230 25 -433 75 -605 6 -22 19 -65 27 -95 24 -82 73 -221 89
-252 8 -14 14 -35 14 -46 0 -11 7 -25 15 -32 8 -7 15 -23 15 -35 0 -12 7 -28
15 -35 8 -7 15 -17 15 -23 0 -6 16 -43 35 -81 34 -68 42 -83 65 -123 5 -10 16
-31 24 -48 7 -16 30 -54 50 -84 20 -29 36 -55 36 -57 0 -6 104 -158 118 -173
7 -8 21 -26 30 -40 63 -100 267 -314 392 -412 41 -32 83 -65 92 -74 10 -8 20
-15 23 -15 2 0 21 -12 42 -26 21 -14 47 -30 58 -35 11 -5 27 -13 35 -18 46
-26 150 -65 240 -91 41 -12 92 -28 113 -36 20 -8 47 -14 60 -14 12 0 31 -7 41
-15 11 -8 29 -15 40 -15 12 0 39 -7 61 -15 22 -8 62 -14 89 -15 26 0 76 -8
110 -17 90 -24 746 -24 821 0 28 9 64 17 81 17 18 0 56 7 85 16 69 20 148 42
174 48 29 7 105 35 142 51 17 8 36 15 41 15 6 0 23 7 39 15 15 8 54 26 86 40
126 56 157 72 322 171 137 83 185 114 248 161 31 24 60 43 63 43 6 0 291 216
312 237 7 7 41 34 75 60 34 26 67 52 72 58 6 7 30 27 55 46 25 18 72 56 106
84 129 107 157 131 176 145 11 8 36 30 56 47 20 18 42 33 48 33 15 0 33 -22
64 -80 61 -115 75 -138 118 -195 62 -82 167 -200 227 -256 88 -82 170 -149
182 -149 7 0 16 -6 20 -13 4 -7 26 -24 48 -37 22 -13 45 -29 51 -35 11 -10
288 -150 357 -179 21 -9 46 -16 56 -16 10 0 24 -7 31 -15 7 -8 26 -15 42 -15
17 0 42 -6 56 -14 31 -16 94 -33 171 -47 29 -5 62 -14 72 -19 10 -6 32 -10 50
-10 18 0 60 -6 93 -14 122 -28 416 -49 594 -42 224 9 517 42 600 68 19 5 57
14 85 19 48 7 92 18 217 50 25 6 54 16 65 22 11 6 36 14 55 18 36 7 84 23 135
45 17 7 71 29 120 49 106 43 330 154 383 190 20 14 41 25 45 25 5 0 26 14 47
30 21 17 41 30 44 30 6 0 95 64 211 152 61 47 293 286 351 363 78 102 139 197
179 280 9 17 19 37 24 45 9 15 30 62 55 122 8 18 21 50 30 71 9 21 16 46 16
57 0 11 6 34 14 52 18 43 35 123 46 223 5 44 12 90 15 103 8 31 -37 72 -80 72
-17 0 -40 7 -51 15 -10 8 -27 15 -37 15 -17 0 -50 14 -97 41 -8 5 -21 11 -27
14 -7 3 -19 7 -25 10 -7 3 -38 19 -68 36 -230 130 -422 311 -574 544 -72 110
-169 295 -181 348 -4 15 -11 30 -16 33 -5 3 -9 12 -9 21 0 8 -6 29 -13 46 -24
56 -47 134 -47 156 0 12 -5 32 -12 44 -6 12 -15 42 -19 67 -4 25 -12 70 -18
100 -40 211 -56 588 -30 735 5 33 14 96 19 140 10 93 26 179 45 250 29 105 48
171 56 190 5 11 20 54 35 95 44 125 50 140 62 152 7 7 12 20 12 29 0 9 7 22
15 29 8 7 15 20 15 30 0 10 7 23 15 30 8 7 15 16 15 21 0 5 12 28 28 52 15 23
29 47 32 52 52 103 302 378 410 450 25 16 47 33 50 36 8 10 168 97 192 105 13
4 32 13 43 20 11 8 27 14 36 14 9 0 30 7 45 15 16 8 39 15 52 15 13 0 33 5 45
12 27 14 149 30 237 30 90 0 269 -18 303 -31 16 -6 39 -11 52 -11 53 0 217
-84 274 -140 73 -70 100 -181 66 -263 -20 -48 -46 -60 -114 -54 -66 7 -148 23
-176 36 -38 17 -151 51 -171 51 -11 0 -25 5 -30 10 -17 17 -190 32 -284 25
-142 -10 -319 -83 -387 -159 -58 -64 -115 -135 -127 -156 -6 -10 -41 -62 -77
-117 -37 -54 -78 -118 -92 -143 -28 -49 -135 -263 -147 -295 -4 -11 -17 -42
-28 -70 -12 -27 -29 -75 -38 -105 -9 -30 -20 -64 -25 -75 -5 -11 -13 -40 -19
-65 -5 -25 -14 -67 -20 -95 -41 -184 -42 -194 -41 -432 1 -256 1 -258 18 -318
6 -22 16 -62 21 -90 20 -96 34 -150 43 -159 5 -6 9 -18 9 -27 0 -34 124 -293
178 -371 20 -29 47 -69 60 -88 86 -128 253 -286 417 -396 82 -56 274 -151 365
-183 236 -81 388 -105 665 -106 243 0 433 23 585 71 25 8 55 14 68 14 13 0 33
5 45 12 12 6 38 15 57 19 43 9 96 27 133 45 16 8 36 14 46 14 9 0 26 7 37 15
10 8 25 15 31 15 24 0 324 144 428 205 33 19 69 39 80 45 11 6 34 19 50 30 17
11 37 23 45 27 21 10 294 194 300 202 3 4 20 17 38 30 86 60 342 317 427 429
22 29 55 70 72 90 18 20 33 41 33 46 0 4 12 25 28 45 29 39 32 44 91 141 56
93 78 133 132 240 43 86 60 122 105 230 8 19 19 43 24 52 6 10 10 23 10 30 1
7 9 31 20 53 11 22 19 46 20 53 0 7 4 20 9 30 5 9 19 51 31 92 12 41 27 86 33
100 5 14 14 43 18 65 10 49 27 119 42 165 6 19 14 58 18 85 7 47 13 78 40 208
6 28 14 96 19 149 4 53 14 114 21 135 9 29 12 152 12 498 0 389 -2 472 -16
537 -10 42 -17 104 -17 136 0 32 -7 81 -15 108 -8 27 -15 68 -15 92 0 23 -7
59 -15 79 -8 19 -15 52 -15 73 0 21 -7 54 -15 73 -8 20 -15 51 -15 69 -1 18
-7 44 -15 58 -8 14 -14 39 -15 55 0 17 -7 43 -15 59 -8 15 -15 37 -15 47 0 10
-6 36 -14 56 -7 21 -24 72 -36 113 -13 41 -26 80 -30 85 -3 6 -17 43 -29 83
-13 40 -27 75 -32 78 -5 3 -9 12 -9 21 0 9 -9 34 -19 57 -11 23 -27 59 -36 81
-38 90 -184 375 -226 440 -10 17 -22 37 -26 45 -15 31 -130 199 -201 293 -131
174 -317 375 -452 488 -36 30 -69 59 -75 65 -20 21 -136 105 -256 185 -60 40
-133 82 -214 124 -27 14 -57 29 -65 34 -8 4 -31 15 -50 23 -19 8 -51 22 -70
31 -88 40 -130 57 -142 57 -8 0 -18 4 -23 8 -6 5 -44 18 -85 31 -41 13 -86 27
-100 32 -14 5 -45 13 -70 18 -25 6 -63 14 -85 20 -104 26 -187 40 -258 45 -43
3 -86 10 -97 16 -31 17 -591 13 -675 -5 -39 -8 -100 -15 -137 -15 l-67 0 -6
38 c-3 20 -10 51 -14 67 -5 17 -12 50 -16 75 -4 25 -13 65 -20 90 -7 25 -21
72 -30 105 -21 73 -51 163 -66 202 -6 15 -15 37 -19 48 -31 77 -127 276 -166
342 -64 108 -86 139 -162 242 -221 297 -550 571 -882 735 -41 21 -82 41 -90
45 -16 9 -75 35 -125 56 -16 6 -47 20 -68 29 -21 9 -42 16 -48 16 -6 0 -25 6
-42 14 -47 20 -161 56 -179 56 -9 0 -29 7 -44 15 -16 8 -40 15 -54 15 -14 0
-43 7 -65 15 -22 8 -57 14 -78 15 -21 0 -47 5 -59 11 -11 6 -63 15 -116 20
-53 5 -110 13 -127 18 -40 12 -423 18 -650 10z"/>
</g>
</svg>
