<svg id="ic_fluent_arrow_right_circle_24_regular" xmlns="http://www.w3.org/2000/svg" width="50" height="50" viewBox="0 0 50 50">
  <path id="_-Color" data-name="🎨-Color" d="M27,2A25,25,0,1,0,52,27,25,25,0,0,0,27,2Zm0,3.75A21.25,21.25,0,1,1,5.751,27,21.25,21.25,0,0,1,27,5.751Zm.882,10.133-.181-.21a1.875,1.875,0,0,0-2.441-.182l-.21.182-10,10a1.875,1.875,0,0,0-.181,2.441l.182.21,10,10a1.875,1.875,0,0,0,2.833-2.442l-.182-.21-6.8-6.8H37.627a1.875,1.875,0,0,0,1.858-1.621L39.5,27a1.876,1.876,0,0,0-1.621-1.858l-.254-.017H20.9l6.8-6.8a1.875,1.875,0,0,0,.181-2.441l-.181-.21Z" transform="translate(-2.001 -2.001)" fill="#e8effc"/>
</svg>
